<mxfile host="app.diagrams.net" modified="2023-12-29T08:43:11.740Z" agent="Mozilla/5.0 (Windows NT 10.0; Win64; x64) AppleWebKit/537.36 (KHTML, like Gecko) Chrome/120.0.0.0 Safari/537.36 Edg/120.0.0.0" version="22.1.15" etag="eVgnq68eps3g5R4M5hxG" type="github">
  <diagram name="Page-1" id="O0_Ae9v4AhH-YTKmdigC">
    <mxGraphModel>
      <root>
        <mxCell id="0" />
        <mxCell id="1" parent="0" />
      </root>
    </mxGraphModel>
  </diagram>
</mxfile>
